<svg width="30" height="31" viewBox="0 0 30 31" fill="none" xmlns="http://www.w3.org/2000/svg">
<g clip-path="url(#clip0_7_290)">
<path fill-rule="evenodd" clip-rule="evenodd" d="M19.6063 5.28931C20.6999 4.02182 21.4371 2.25647 21.2354 0.5C19.6594 0.56 17.7528 1.50672 16.6228 2.77271C15.6081 3.89619 14.7223 5.69135 14.9604 7.41333C16.7184 7.54382 18.5127 6.55828 19.6063 5.28931ZM23.5485 16.4375C23.5925 20.9779 27.7045 22.4883 27.75 22.5078C27.7166 22.6143 27.0932 24.6599 25.584 26.7749C24.2781 28.6019 22.9236 30.4214 20.7894 30.4604C18.6932 30.4979 18.0182 29.2695 15.6202 29.2695C13.2237 29.2695 12.4744 30.4213 10.4904 30.4978C8.43059 30.5713 6.86071 28.5212 5.54565 26.7002C2.85485 22.9757 0.799598 16.1751 3.56016 11.5852C4.93135 9.30674 7.38097 7.86168 10.0414 7.82568C12.0633 7.78818 13.973 9.12939 15.2091 9.12939C16.4453 9.12939 18.766 7.51691 21.205 7.75391C22.2258 7.79441 25.0926 8.14828 26.9324 10.7297C26.7838 10.8182 23.5121 12.6426 23.5485 16.4375Z" fill="white"/>
</g>
<defs>
<clipPath id="clip0_7_290">
<rect width="30" height="30" fill="white" transform="translate(0 0.5)"/>
</clipPath>
</defs>
</svg>
