<svg width="30" height="31" viewBox="0 0 30 31" fill="none" xmlns="http://www.w3.org/2000/svg">
<g clip-path="url(#clip0_7_330)">
<path d="M21.0628 0.5H8.93716C4.00919 0.5 0 4.50919 0 9.43716V21.5628C0 26.4908 4.00919 30.5 8.93716 30.5H21.0628C25.9908 30.5 30 26.4908 30 21.5628V9.43716C29.9999 4.50919 25.9908 0.5 21.0628 0.5ZM26.982 21.5628C26.982 24.8319 24.3319 27.482 21.0628 27.482H8.93716C5.66813 27.482 3.018 24.8319 3.018 21.5628V9.43716C3.018 6.16807 5.66813 3.518 8.93716 3.518H21.0628C24.3319 3.518 26.982 6.16807 26.982 9.43716V21.5628Z" fill="url(#paint0_linear_7_330)"/>
<path d="M15 7.74091C10.7217 7.74091 7.24097 11.2216 7.24097 15.4999C7.24097 19.7782 10.7217 23.259 15 23.259C19.2784 23.259 22.7591 19.7783 22.7591 15.4999C22.7591 11.2216 19.2784 7.74091 15 7.74091ZM15 20.241C12.3816 20.241 10.259 18.1184 10.259 15.5C10.259 12.8815 12.3816 10.7589 15 10.7589C17.6185 10.7589 19.7411 12.8815 19.7411 15.5C19.7411 18.1184 17.6184 20.241 15 20.241Z" fill="url(#paint1_linear_7_330)"/>
<path d="M22.774 9.65841C23.8009 9.65841 24.6333 8.826 24.6333 7.79917C24.6333 6.77235 23.8009 5.93994 22.774 5.93994C21.7472 5.93994 20.9148 6.77235 20.9148 7.79917C20.9148 8.826 21.7472 9.65841 22.774 9.65841Z" fill="url(#paint2_linear_7_330)"/>
</g>
<defs>
<linearGradient id="paint0_linear_7_330" x1="15" y1="30.4127" x2="15" y2="0.733015" gradientUnits="userSpaceOnUse">
<stop stop-color="#E09B3D"/>
<stop offset="0.3" stop-color="#C74C4D"/>
<stop offset="0.6" stop-color="#C21975"/>
<stop offset="1" stop-color="#7024C4"/>
</linearGradient>
<linearGradient id="paint1_linear_7_330" x1="15" y1="30.4126" x2="15" y2="0.73299" gradientUnits="userSpaceOnUse">
<stop stop-color="#E09B3D"/>
<stop offset="0.3" stop-color="#C74C4D"/>
<stop offset="0.6" stop-color="#C21975"/>
<stop offset="1" stop-color="#7024C4"/>
</linearGradient>
<linearGradient id="paint2_linear_7_330" x1="22.774" y1="30.4127" x2="22.774" y2="0.733003" gradientUnits="userSpaceOnUse">
<stop stop-color="#E09B3D"/>
<stop offset="0.3" stop-color="#C74C4D"/>
<stop offset="0.6" stop-color="#C21975"/>
<stop offset="1" stop-color="#7024C4"/>
</linearGradient>
<clipPath id="clip0_7_330">
<rect width="30" height="30" fill="white" transform="translate(0 0.5)"/>
</clipPath>
</defs>
</svg>
