<svg width="30" height="31" viewBox="0 0 30 31" fill="none" xmlns="http://www.w3.org/2000/svg">
<g clip-path="url(#clip0_7_285)">
<path fill-rule="evenodd" clip-rule="evenodd" d="M23.8725 13.7979C19.038 10.9269 11.0625 10.6625 6.4455 12.0635C5.7045 12.287 4.92149 11.8699 4.6965 11.1274C4.4715 10.3864 4.89 9.60342 5.631 9.37842C10.9305 7.76892 19.7385 8.07929 25.305 11.3838C25.971 11.7798 26.19 12.6411 25.794 13.3071C25.401 13.9731 24.537 14.1939 23.8725 13.7979ZM23.715 18.0503C23.376 18.6008 22.656 18.773 22.1055 18.4355C18.075 15.9575 11.928 15.2405 7.1595 16.688C6.54 16.874 5.8875 16.526 5.7 15.908C5.514 15.29 5.862 14.6372 6.48 14.4497C11.9265 12.7967 18.699 13.5979 23.3295 16.4434C23.88 16.7809 24.0525 17.5013 23.715 18.0503ZM21.879 22.1343C21.609 22.5753 21.0345 22.7148 20.5935 22.4448C17.0715 20.2923 12.6375 19.8065 7.416 20.999C6.9135 21.1145 6.411 20.7992 6.297 20.2952C6.1815 19.7927 6.495 19.2923 7.0005 19.1768C12.714 17.8703 17.6145 18.4324 21.5685 20.8489C22.0095 21.1189 22.149 21.6933 21.879 22.1343ZM15 0.5C6.7155 0.5 0 7.2155 0 15.5C0 23.7845 6.7155 30.5 15 30.5C23.2845 30.5 30 23.7845 30 15.5C30 7.217 23.2845 0.5 15 0.5Z" fill="#00A63E"/>
</g>
<defs>
<clipPath id="clip0_7_285">
<rect width="30" height="30" fill="white" transform="translate(0 0.5)"/>
</clipPath>
</defs>
</svg>
