<svg width="30" height="31" viewBox="0 0 30 31" fill="none" xmlns="http://www.w3.org/2000/svg">
<g clip-path="url(#clip0_7_270)">
<path d="M7.5175 10.5077C7.66034 9.378 9.12847 7.84268 10.2936 8.01304L10.2917 8.01118C11.4256 8.22665 12.3232 10.1783 12.8294 11.0558C13.188 11.6925 12.9551 12.3376 12.6206 12.6098C12.1694 12.9735 11.4637 13.4754 11.6118 13.9792C11.875 14.875 15 18 16.537 18.8884C17.1188 19.2246 17.5406 18.3378 17.9009 17.8834C18.1626 17.5339 18.8083 17.325 19.4435 17.67C20.3923 18.2225 21.286 18.8646 22.1125 19.5875C22.5253 19.9325 22.6221 20.4424 22.3361 20.9813C21.8324 21.9304 20.3754 23.182 19.3178 22.9276C17.4705 22.4835 10 19.5875 7.60041 11.1975C7.46546 10.8006 7.49944 10.6506 7.5175 10.5077Z" fill="#05DF72"/>
<path fill-rule="evenodd" clip-rule="evenodd" d="M15 29.25C13.4705 29.25 12.6243 29.0859 11.25 28.625L8.61804 29.941C6.95578 30.7721 5 29.5634 5 27.7049V24.875C2.30819 22.365 1.25 19.4709 1.25 15.5C1.25 7.90609 7.40609 1.75 15 1.75C22.5939 1.75 28.75 7.90609 28.75 15.5C28.75 23.0939 22.5939 29.25 15 29.25ZM7.5 23.7879L6.70494 23.0465C4.61359 21.0965 3.75 18.9164 3.75 15.5C3.75 9.2868 8.7868 4.25 15 4.25C21.2132 4.25 26.25 9.2868 26.25 15.5C26.25 21.7132 21.2132 26.75 15 26.75C13.7679 26.75 13.19 26.6388 12.0449 26.2547L11.0606 25.9246L7.5 27.7049V23.7879Z" fill="#05DF72"/>
</g>
<defs>
<clipPath id="clip0_7_270">
<rect width="30" height="30" fill="white" transform="translate(0 0.5)"/>
</clipPath>
</defs>
</svg>
