<svg width="30" height="31" viewBox="0 0 30 31" fill="none" xmlns="http://www.w3.org/2000/svg">
<path d="M15 1.25C7.1298 1.25 0.75 7.6469 0.75 15.5378C1.5006 34.4903 28.5021 34.4849 29.25 15.5375C29.25 7.6469 22.8699 1.25 15 1.25ZM15 23.7197C10.4892 23.7197 6.819 20.0498 6.819 15.5387C7.041 9.9401 11.2152 7.3985 14.9997 7.3985H15.0003C18.7851 7.3988 22.9596 9.9404 23.1804 15.5204C23.181 20.0501 19.5108 23.7197 15 23.7197Z" fill="#E7000B"/>
<path d="M15.001 8.33105C19.7846 8.33179 22.1119 12.0774 22.249 15.5391C22.249 19.5359 18.9969 22.7871 15 22.7871C11.0033 22.787 7.75146 19.536 7.75098 15.5576C7.88928 12.077 10.2172 8.33075 15.001 8.33105ZM12.3164 19.3965L18.8574 15.3711L12.3164 11.6816V19.3965Z" fill="#E7000B"/>
</svg>
